<?xml version="1.0" encoding="UTF-8" standalone="no"?>
<!-- Created with Inkscape (http://www.inkscape.org/) -->

<svg
   width="167.30717mm"
   height="172.07654mm"
   viewBox="0 0 167.30718 172.07654"
   version="1.1"
   id="svg3487"
   xml:space="preserve"
   xmlns="http://www.w3.org/2000/svg"
   xmlns:svg="http://www.w3.org/2000/svg"><defs
     id="defs3484" /><style
     type="text/css"
     id="style1">
	.st0{fill:#193E4F;}
	.st1{fill:none;}
</style><g
     id="layer1"
     transform="translate(-97.765298,-40.035057)"><path
       style="display:inline;fill:none;fill-opacity:1;stroke:#3da639;stroke-width:1.83274;stroke-linecap:round;stroke-linejoin:round;stroke-dasharray:none;stroke-opacity:1;paint-order:normal"
       id="path4-6-2-0-8-2-6-2-1-9"
       transform="rotate(89.986406,942.21104,1690.8926)"
       d="m -614.84492,2411.6394 a 22.880173,23.381193 0 0 1 -25.60759,13.8042 22.880173,23.381193 0 0 1 -18.34342,-22.8902 22.880173,23.381193 0 0 1 18.29199,-22.9331 22.880173,23.381193 0 0 1 25.6385,13.7442" /><path
       style="display:inline;fill:none;fill-opacity:1;stroke:#3da639;stroke-width:1.83274;stroke-linecap:round;stroke-linejoin:round;stroke-dasharray:none;stroke-opacity:1;paint-order:normal"
       id="path5-8-9-7-8-7-8-9-2-5"
       transform="rotate(89.986406,942.21104,1690.8926)"
       d="m -621.32641,2409.1708 a 16.176199,16.530422 0 0 1 -18.11626,9.5377 16.176199,16.530422 0 0 1 -12.87192,-16.1454 16.176199,16.530422 0 0 1 12.80214,-16.2033 16.176199,16.530422 0 0 1 18.15723,9.456" /><path
       style="display:inline;fill:none;fill-opacity:1;stroke:#3da639;stroke-width:1.83274;stroke-linecap:round;stroke-linejoin:round;stroke-dasharray:none;stroke-opacity:1;paint-order:normal"
       id="path6-1-1-7-2-9-5-1-0-6"
       transform="rotate(89.986406,942.21104,1690.8926)"
       d="m -627.63704,2406.1748 a 9.5300484,9.7387342 0 0 1 -10.65452,5.9116 9.5300484,9.7387342 0 0 1 -7.71163,-9.5598 9.5300484,9.7387342 0 0 1 7.71163,-9.5598 9.5300484,9.7387342 0 0 1 10.65452,5.9116" /><path
       style="display:inline;fill:none;fill-opacity:1;stroke:#3da639;stroke-width:1.83274;stroke-linecap:round;stroke-linejoin:round;stroke-dasharray:none;stroke-opacity:1;paint-order:normal"
       id="path7-9-5-8-4-5-7-3-1-4"
       transform="rotate(89.986406,942.21104,1690.8926)"
       d="m -608.26034,2413.8729 a 29.639605,30.288645 0 0 1 -33.13686,18.3859 29.639605,30.288645 0 0 1 -23.9841,-29.7322 29.639605,30.288645 0 0 1 23.9841,-29.7321 29.639605,30.288645 0 0 1 33.13686,18.3858" /><path
       style="display:inline;fill:none;fill-opacity:1;stroke:#3da639;stroke-width:1.83274;stroke-linecap:round;stroke-linejoin:miter;stroke-dasharray:none;stroke-opacity:1;paint-order:markers stroke fill"
       id="path8-8-0-7-5-4-6-5-6-8"
       d="m 1620.9219,1962.0155 a 54.26408,54.26408 0 0 1 -41.4407,51.0442 54.26408,54.26408 0 0 1 -60.2276,-26.3719 54.26408,54.26408 0 0 1 9.4033,-65.0724"
       transform="rotate(143.71605,1193.8487,805.48687)" /><path
       style="display:inline;fill:none;fill-opacity:1;stroke:#3da639;stroke-width:1.83274;stroke-linecap:round;stroke-linejoin:miter;stroke-dasharray:none;stroke-opacity:1;paint-order:markers stroke fill"
       id="path9-9-3-3-5-3-1-98-4-2"
       d="m 1596.3023,1957.6585 a 30.528954,30.528954 0 0 1 -14.4794,29.2339 30.528954,30.528954 0 0 1 -32.6187,-0.5362 30.528954,30.528954 0 0 1 -13.5108,-29.6939"
       transform="rotate(143.71605,1193.8487,805.48687)" /><path
       style="display:inline;fill:none;fill-opacity:1;stroke:#467da8;stroke-width:1.83274;stroke-linecap:round;stroke-linejoin:miter;stroke-dasharray:none;stroke-opacity:1;paint-order:markers stroke fill"
       id="path10-7-6-0-1-1-8-4-0-1"
       d="m 1616.4146,1953.489 a 50.333683,50.333683 0 0 1 -30.4612,53.3621 50.333683,50.333683 0 0 1 -59.364,-15.8531 50.333683,50.333683 0 0 1 0.1977,-61.444"
       transform="rotate(143.71605,1193.8487,805.48687)" /><path
       style="display:inline;fill:none;fill-opacity:1;stroke:#467da8;stroke-width:1.83274;stroke-linecap:round;stroke-linejoin:miter;stroke-dasharray:none;stroke-opacity:1;paint-order:markers stroke fill"
       id="path11-2-4-3-7-2-9-0-6-6"
       d="m 1612.3285,1954.2253 a 46.394329,46.394329 0 0 1 -26.6676,48.3008 46.394329,46.394329 0 0 1 -53.993,-11.3527 46.394329,46.394329 0 0 1 -4.9576,-54.9505"
       transform="rotate(143.71605,1193.8487,805.48687)" /><path
       style="display:inline;fill:none;fill-opacity:1;stroke:#467da8;stroke-width:1.83274;stroke-linecap:round;stroke-linejoin:miter;stroke-dasharray:none;stroke-opacity:1;paint-order:markers stroke fill"
       id="path12-2-9-8-1-3-2-7-1-8"
       d="m 1608.4019,1955.0319 a 42.453865,42.453865 0 0 1 -23.0579,43.4872 42.453865,42.453865 0 0 1 -48.6433,-7.5251 42.453865,42.453865 0 0 1 -8.8395,-48.4217"
       transform="rotate(143.71605,1193.8487,805.48687)" /><path
       style="display:inline;fill:none;fill-opacity:1;stroke:#467da8;stroke-width:1.83274;stroke-linecap:round;stroke-linejoin:miter;stroke-dasharray:none;stroke-opacity:1;paint-order:markers stroke fill"
       id="path13-8-2-2-1-3-7-6-8-3"
       d="m 1604.413,1956.0538 a 38.501514,38.501514 0 0 1 -20.0699,38.5519 38.501514,38.501514 0 0 1 -43.2068,-4.7147 38.501514,38.501514 0 0 1 -11.2831,-41.9731"
       transform="rotate(143.71605,1193.8487,805.48687)" /><path
       style="display:inline;fill:none;fill-opacity:1;stroke:#467da8;stroke-width:1.83274;stroke-linecap:round;stroke-linejoin:miter;stroke-dasharray:none;stroke-opacity:1;paint-order:markers stroke fill"
       id="path14-2-9-5-5-4-9-3-9-1"
       d="m 1600.5153,1956.6483 a 34.689011,34.689011 0 0 1 -17.1583,34.1592 34.689011,34.689011 0 0 1 -38.1535,-2.3604 34.689011,34.689011 0 0 1 -12.817,-36.0137"
       transform="rotate(143.71605,1193.8487,805.48687)" /><path
       style="display:inline;fill:none;fill-opacity:1;stroke:#3da639;stroke-width:1.83274;stroke-linecap:round;stroke-linejoin:miter;stroke-dasharray:none;stroke-opacity:1;paint-order:markers stroke fill"
       id="path15-8-3-2-2-1-5-6-8-4"
       d="m -1609.7972,-1943.2604 a 54.26408,54.26408 0 0 1 -32.4931,61 54.26408,54.26408 0 0 1 -66.0394,-20.386 54.26408,54.26408 0 0 1 7.5451,-68.7013 54.26408,54.26408 0 0 1 68.8898,-5.5674"
       transform="rotate(-35.874012,2472.2476,-3692.6541)" /><path
       style="display:inline;fill:none;fill-opacity:1;stroke:#3da639;stroke-width:1.83274;stroke-linecap:round;stroke-linejoin:miter;stroke-dasharray:none;stroke-opacity:1;paint-order:markers stroke fill"
       id="path16-9-4-0-7-1-4-1-4-8"
       d="m -1633.8016,-1938.0277 a 30.528954,30.528954 0 0 1 -23.1776,35.8697 30.528954,30.528954 0 0 1 -36.3612,-22.3985 30.528954,30.528954 0 0 1 21.609,-36.8359 30.528954,30.528954 0 0 1 37.2934,20.8095"
       transform="rotate(-35.874012,2472.2476,-3692.6541)" /><path
       style="display:inline;fill:none;fill-opacity:1;stroke:#467da8;stroke-width:1.83274;stroke-linecap:round;stroke-linejoin:miter;stroke-dasharray:none;stroke-opacity:1;paint-order:markers stroke fill"
       id="path17-0-4-3-6-3-3-5-1-4"
       d="m -1613.7748,-1942.3978 a 50.333683,50.333683 0 0 1 -30.2922,56.6444 50.333683,50.333683 0 0 1 -61.2837,-19.2487 50.333683,50.333683 0 0 1 7.5358,-63.792 50.333683,50.333683 0 0 1 64.082,-4.4391"
       transform="rotate(-35.874012,2472.2476,-3692.6541)" /><path
       style="display:inline;fill:none;fill-opacity:1;stroke:#467da8;stroke-width:1.83274;stroke-linecap:round;stroke-linejoin:miter;stroke-dasharray:none;stroke-opacity:1;paint-order:markers stroke fill"
       id="path18-7-0-7-1-8-1-4-4-9"
       d="m -1617.8533,-1941.6694 a 46.394329,46.394329 0 0 1 -28.1895,52.3197 46.394329,46.394329 0 0 1 -56.5305,-18.3383 46.394329,46.394329 0 0 1 7.8911,-58.9044 46.394329,46.394329 0 0 1 59.3639,-2.8125"
       transform="rotate(-35.874012,2472.2476,-3692.6541)" /><path
       style="display:inline;fill:none;fill-opacity:1;stroke:#467da8;stroke-width:1.83274;stroke-linecap:round;stroke-linejoin:miter;stroke-dasharray:none;stroke-opacity:1;paint-order:markers stroke fill"
       id="path19-8-5-2-4-7-2-2-3-2"
       d="m -1621.7429,-1940.6585 a 42.453865,42.453865 0 0 1 -26.0995,47.9965 42.453865,42.453865 0 0 1 -51.7694,-17.4579 42.453865,42.453865 0 0 1 8.2964,-54.0002 42.453865,42.453865 0 0 1 54.6225,-1.1123"
       transform="rotate(-35.874012,2472.2476,-3692.6541)" /><path
       style="display:inline;fill:none;fill-opacity:1;stroke:#467da8;stroke-width:1.83274;stroke-linecap:round;stroke-linejoin:miter;stroke-dasharray:none;stroke-opacity:1;paint-order:markers stroke fill"
       id="path20-1-9-9-2-4-3-09-9-0"
       d="m -1625.7395,-1939.7866 a 38.501514,38.501514 0 0 1 -24.1329,43.7064 38.501514,38.501514 0 0 1 -46.9915,-16.8655 38.501514,38.501514 0 0 1 9.1676,-49.0775 38.501514,38.501514 0 0 1 49.9112,1.2359"
       transform="rotate(-35.874012,2472.2476,-3692.6541)" /><path
       style="display:inline;fill:none;fill-opacity:1;stroke:#467da8;stroke-width:1.83274;stroke-linecap:round;stroke-linejoin:miter;stroke-dasharray:none;stroke-opacity:1;paint-order:markers stroke fill"
       id="path21-5-6-7-3-2-3-7-8-7"
       d="m -1629.618,-1939.0588 a 34.689011,34.689011 0 0 1 -22.255,39.6889 34.689011,34.689011 0 0 1 -42.4083,-16.4931 34.689011,34.689011 0 0 1 10.4076,-44.2964 34.689011,34.689011 0 0 1 45.3159,4.1183"
       transform="rotate(-35.874012,2472.2476,-3692.6541)" /><path
       style="display:inline;fill:none;fill-opacity:1;stroke:#3da639;stroke-width:1.83274;stroke-linecap:round;stroke-linejoin:round;stroke-dasharray:none;stroke-opacity:1"
       d="m -2414.0164,-607.68769 0.014,41.156 11.3258,-11.2166 11.3304,11.372 0.023,-41.3166 v 0"
       id="path22-8-3-5-2-7-4-3-8-0"
       transform="translate(2632.8801,748.28043)" /></g></svg>
