<?xml version="1.0" encoding="UTF-8" standalone="no"?>
<!-- Created with Inkscape (http://www.inkscape.org/) -->

<svg
   width="173.7959mm"
   height="189.84476mm"
   viewBox="0 0 173.7959 189.84476"
   version="1.1"
   id="svg3487"
   xml:space="preserve"
   xmlns="http://www.w3.org/2000/svg"
   xmlns:svg="http://www.w3.org/2000/svg"><defs
     id="defs3484" /><style
     type="text/css"
     id="style1">
	.st0{fill:#193E4F;}
	.st1{fill:none;}
</style><g
     id="layer4"
     transform="translate(-89.944,-305.06279)"><path
       d="m -1883.9478,-189.03857 q -3.1424,0 -5.8098,-1.0962 -2.6674,-1.0962 -4.6771,-3.0693 -1.9731,-2.0097 -3.0693,-4.6771 -1.0962,-2.6674 -1.0962,-5.8098 0,-3.1424 1.0962,-5.7733 1.0962,-2.6674 3.0693,-4.6405 2.0097,-2.0097 4.6771,-3.1059 2.6674,-1.0962 5.8098,-1.0962 3.1424,0 5.7733,1.0962 2.6674,1.0962 4.6405,3.1059 2.0097,1.9731 3.1059,4.6405 1.0962,2.6309 1.0962,5.7733 0,3.1424 -1.0962,5.8098 -1.0962,2.6674 -3.1059,4.6771 -1.9731,1.9731 -4.6405,3.0693 -2.6309,1.0962 -5.7733,1.0962 z m 0,-2.1924 q 2.6309,0 4.8964,-0.9135 2.2654,-0.95 3.9462,-2.6308 1.7174,-1.7174 2.6309,-3.9829 0.95,-2.2654 0.95,-4.9328 0,-2.6309 -0.95,-4.8963 -0.9135,-2.2655 -2.6309,-3.9463 -1.6808,-1.7174 -3.9462,-2.6309 -2.2655,-0.95 -4.8964,-0.95 -2.6674,0 -4.9328,0.95 -2.2655,0.9135 -3.9829,2.6309 -1.6808,1.6808 -2.6308,3.9463 -0.9135,2.2654 -0.9135,4.8963 0,2.6674 0.9135,4.9328 0.95,2.2655 2.6308,3.9829 1.7174,1.6808 3.9829,2.6308 2.2654,0.9135 4.9328,0.9135 z m 35.2927,2.1924 q -2.302,0 -4.2386,-0.6212 -1.9001,-0.6577 -3.2886,-1.827 -1.3885,-1.2058 -2.1924,-2.8135 -0.2192,-0.4385 -0.037,-0.8404 0.2192,-0.402 0.6942,-0.5481 0.402,-0.1462 0.8039,0.036 0.402,0.1827 0.6212,0.5846 0.6577,1.1693 1.7174,2.0463 1.0961,0.8769 2.5577,1.3519 1.4982,0.4385 3.3617,0.4385 2.0828,0 3.5809,-0.6942 1.5346,-0.6943 2.3385,-2.0463 0.8404,-1.3519 0.8404,-3.2885 0,-2.4117 -1.7539,-4.0559 -1.7173,-1.6809 -5.2617,-2.1559 -4.0924,-0.5846 -6.3944,-2.6308 -2.302,-2.0828 -2.302,-5.0425 0,-2.1559 1.0596,-3.7636 1.0962,-1.6078 3.0328,-2.4847 1.9732,-0.9135 4.5309,-0.9135 1.9001,0 3.5078,0.6212 1.6078,0.6211 2.8136,1.6443 1.2058,0.9865 1.8635,2.0827 0.2558,0.402 0.1096,0.877 -0.1096,0.4384 -0.5846,0.6211 -0.4019,0.1462 -0.8039,0.037 -0.4019,-0.1462 -0.6577,-0.5116 -0.5115,-0.7673 -1.3154,-1.4981 -0.8039,-0.7308 -2.0097,-1.2058 -1.2058,-0.475 -2.9232,-0.475 -2.9962,0 -4.7136,1.3519 -1.7174,1.352 -1.7174,3.8367 0,1.3154 0.6943,2.4116 0.7308,1.0597 2.2655,1.827 1.5346,0.7674 3.9097,1.1693 4.7136,0.8039 6.7599,2.9232 2.0827,2.0827 2.0827,5.3348 0,1.9 -0.6577,3.4347 -0.6212,1.5347 -1.827,2.5943 -1.1693,1.0597 -2.8135,1.6443 -1.6443,0.5481 -3.654,0.5481 z m 29.8117,0 q -2.302,0 -4.2386,-0.6212 -1.9001,-0.6577 -3.2886,-1.827 -1.3885,-1.2058 -2.1924,-2.8135 -0.2192,-0.4385 -0.037,-0.8404 0.2192,-0.402 0.6942,-0.5481 0.402,-0.1462 0.8039,0.036 0.4019,0.1827 0.6212,0.5846 0.6577,1.1693 1.7173,2.0463 1.0962,0.8769 2.5578,1.3519 1.4981,0.4385 3.3617,0.4385 2.0827,0 3.5809,-0.6942 1.5346,-0.6943 2.3385,-2.0463 0.8404,-1.3519 0.8404,-3.2885 0,-2.4117 -1.7539,-4.0559 -1.7174,-1.6809 -5.2617,-2.1559 -4.0925,-0.5846 -6.3945,-2.6308 -2.302,-2.0828 -2.302,-5.0425 0,-2.1559 1.0597,-3.7636 1.0962,-1.6078 3.0328,-2.4847 1.9731,-0.9135 4.5309,-0.9135 1.9001,0 3.5078,0.6212 1.6078,0.6211 2.8136,1.6443 1.2058,0.9865 1.8635,2.0827 0.2558,0.402 0.1096,0.877 -0.1096,0.4384 -0.5846,0.6211 -0.4019,0.1462 -0.8039,0.037 -0.4019,-0.1462 -0.6577,-0.5116 -0.5116,-0.7673 -1.3154,-1.4981 -0.8039,-0.7308 -2.0097,-1.2058 -1.2058,-0.475 -2.9232,-0.475 -2.9962,0 -4.7136,1.3519 -1.7174,1.352 -1.7174,3.8367 0,1.3154 0.6943,2.4116 0.7308,1.0597 2.2654,1.827 1.5347,0.7674 3.9098,1.1693 4.7136,0.8039 6.7598,2.9232 2.0828,2.0827 2.0828,5.3348 0,1.9 -0.6577,3.4347 -0.6212,1.5347 -1.827,2.5943 -1.1693,1.0597 -2.8136,1.6443 -1.6442,0.5481 -3.6539,0.5481 z m 22.3576,-0.3654 q -0.4751,0 -0.8039,-0.2923 -0.2923,-0.3289 -0.2923,-0.8039 v -26.3451 q 0,-0.475 0.2923,-0.7674 0.3288,-0.3288 0.8039,-0.3288 0.475,0 0.7673,0.3288 0.3288,0.2924 0.3288,0.7674 v 26.3451 q 0,0.475 -0.3288,0.8039 -0.2923,0.2923 -0.7673,0.2923 z m 27.5097,0.3654 q -2.9232,0 -5.5175,-1.1327 -2.5578,-1.1693 -4.5309,-3.179 -1.9732,-2.0462 -3.1059,-4.6771 -1.1327,-2.6674 -1.1327,-5.6636 0,-2.9597 1.0962,-5.5906 1.0961,-2.6674 3.0327,-4.6771 1.9732,-2.0462 4.5675,-3.1789 2.5943,-1.1693 5.5906,-1.1693 2.5212,0 4.7867,0.8039 2.2654,0.8038 4.2386,2.4481 0.3288,0.2558 0.3288,0.7308 0,0.4385 -0.2923,0.8039 -0.2923,0.3289 -0.8038,0.3289 -0.1462,0 -0.2924,-0.037 -0.1461,-0.073 -0.2923,-0.1461 -0.1461,-0.1097 -0.3288,-0.2558 -1.4616,-1.3155 -3.3252,-1.9001 -1.8635,-0.5846 -4.0193,-0.5846 -2.4482,0 -4.6406,1.0231 -2.1923,0.9866 -3.8732,2.7405 -1.6808,1.7173 -2.6308,3.9463 -0.9501,2.2289 -0.9501,4.7136 0,2.5578 0.9501,4.8232 0.95,2.2655 2.5943,3.9828 1.6808,1.7174 3.8732,2.704 2.1924,0.95 4.6771,0.95 2.1558,0 4.0193,-0.6577 1.9001,-0.6577 3.5444,-2.0097 0.2923,-0.2558 0.6943,-0.1827 0.4019,0.073 0.6942,0.3654 0.2923,0.2923 0.2923,0.7673 0,0.2193 -0.037,0.402 -0.037,0.1827 -0.2193,0.3654 -1.7904,1.7904 -4.1655,2.4847 -2.3385,0.6577 -4.8232,0.6577 z m 9.2445,-3.9098 -2.1924,-0.475 v -7.8925 h -6.1386 q -0.475,0 -0.8039,-0.2924 -0.2923,-0.2923 -0.2923,-0.7308 0,-0.4019 0.2923,-0.6577 0.3289,-0.2923 0.8039,-0.2923 h 7.2348 q 0.5116,0 0.8039,0.2923 0.2923,0.2923 0.2923,0.7674 z m 13.3324,3.5444 q -0.4751,0 -0.8039,-0.2923 -0.2923,-0.3289 -0.2923,-0.8039 v -26.3451 q 0,-0.475 0.2923,-0.7674 0.3288,-0.3288 0.8039,-0.3288 0.5115,0 0.8404,0.3654 l 18.5621,24.1527 v -23.4219 q 0,-0.475 0.2924,-0.7674 0.3288,-0.3288 0.8038,-0.3288 0.4385,0 0.7674,0.3288 0.3288,0.2924 0.3288,0.7674 v 26.3451 q 0,0.475 -0.3288,0.8039 -0.3289,0.2923 -0.7674,0.2923 -0.2558,0 -0.475,-0.073 -0.1827,-0.1096 -0.3288,-0.2558 l -18.5988,-24.1892 v 23.4219 q 0,0.475 -0.3288,0.8039 -0.2923,0.2923 -0.7673,0.2923 z"
       id="text4-8-8-8-1-1-1"
       style="-inkscape-font-specification:'Comfortaa Light';display:inline;fill:#467da8;stroke-width:31.1101"
       aria-label="OSSIGN"
       transform="translate(1988.5442,683.94612)" /><path
       style="display:inline;fill:none;fill-opacity:1;stroke:#3da639;stroke-width:1.46543;stroke-linecap:round;stroke-linejoin:round;stroke-dasharray:none;stroke-opacity:1;paint-order:normal"
       id="path4-6-2-0-8-2-6-9-2"
       transform="rotate(89.986406,652.21788,1336.4811)"
       d="m -304.16751,1782.0302 a 18.294577,18.695183 0 0 1 -20.47537,11.0376 18.294577,18.695183 0 0 1 -14.66707,-18.3026 18.294577,18.695183 0 0 1 14.62595,-18.3369 18.294577,18.695183 0 0 1 20.50009,10.9896" /><path
       style="display:inline;fill:none;fill-opacity:1;stroke:#3da639;stroke-width:1.46543;stroke-linecap:round;stroke-linejoin:round;stroke-dasharray:none;stroke-opacity:1;paint-order:normal"
       id="path5-8-9-7-8-7-8-8-5"
       transform="rotate(89.986406,652.21788,1336.4811)"
       d="m -309.34981,1780.0563 a 12.934198,13.217429 0 0 1 -14.48544,7.6262 12.934198,13.217429 0 0 1 -10.29215,-12.9096 12.934198,13.217429 0 0 1 10.23635,-12.9558 12.934198,13.217429 0 0 1 14.5182,7.5608" /><path
       style="display:inline;fill:none;fill-opacity:1;stroke:#3da639;stroke-width:1.46543;stroke-linecap:round;stroke-linejoin:round;stroke-dasharray:none;stroke-opacity:1;paint-order:normal"
       id="path6-1-1-7-2-9-5-9-7"
       transform="rotate(89.986406,652.21788,1336.4811)"
       d="m -314.39562,1777.6608 a 7.6200557,7.7869172 0 0 1 -8.51917,4.7268 7.6200557,7.7869172 0 0 1 -6.16608,-7.6438 7.6200557,7.7869172 0 0 1 6.16608,-7.6439 7.6200557,7.7869172 0 0 1 8.51917,4.7268" /><path
       style="display:inline;fill:none;fill-opacity:1;stroke:#3da639;stroke-width:1.46543;stroke-linecap:round;stroke-linejoin:round;stroke-dasharray:none;stroke-opacity:1;paint-order:normal"
       id="path7-9-5-8-4-5-7-72-4"
       transform="rotate(89.986406,652.21788,1336.4811)"
       d="m -298.90249,1783.8161 a 23.699297,24.218258 0 0 1 -26.49565,14.701 23.699297,24.218258 0 0 1 -19.17726,-23.7733 23.699297,24.218258 0 0 1 19.17726,-23.7733 23.699297,24.218258 0 0 1 26.49565,14.701" /><path
       style="display:inline;fill:none;fill-opacity:1;stroke:#3da639;stroke-width:1.46543;stroke-linecap:round;stroke-linejoin:miter;stroke-dasharray:none;stroke-opacity:1;paint-order:markers stroke fill"
       id="path8-8-0-7-5-4-6-2-4"
       d="m 1289.0253,1331.1277 a 43.388584,43.388584 0 0 1 -33.1352,40.8141 43.388584,43.388584 0 0 1 -48.157,-21.0865 43.388584,43.388584 0 0 1 7.5188,-52.0307"
       transform="rotate(143.71605,882.22071,667.75769)" /><path
       style="display:inline;fill:none;fill-opacity:1;stroke:#3da639;stroke-width:1.46543;stroke-linecap:round;stroke-linejoin:miter;stroke-dasharray:none;stroke-opacity:1;paint-order:markers stroke fill"
       id="path9-9-3-3-5-3-1-8-4"
       d="m 1269.3398,1327.6439 a 24.410404,24.410404 0 0 1 -11.5774,23.3749 24.410404,24.410404 0 0 1 -26.0814,-0.4287 24.410404,24.410404 0 0 1 -10.803,-23.7427"
       transform="rotate(143.71605,882.22071,667.75769)" /><path
       style="display:inline;fill:none;fill-opacity:1;stroke:#467da8;stroke-width:1.46543;stroke-linecap:round;stroke-linejoin:miter;stroke-dasharray:none;stroke-opacity:1;paint-order:markers stroke fill"
       id="path10-7-6-0-1-1-8-2-4"
       d="m 1285.4214,1324.3101 a 40.245911,40.245911 0 0 1 -24.3562,42.6674 40.245911,40.245911 0 0 1 -47.4664,-12.6758 40.245911,40.245911 0 0 1 0.1581,-49.1295"
       transform="rotate(143.71605,882.22071,667.75769)" /><path
       style="display:inline;fill:none;fill-opacity:1;stroke:#467da8;stroke-width:1.46543;stroke-linecap:round;stroke-linejoin:miter;stroke-dasharray:none;stroke-opacity:1;paint-order:markers stroke fill"
       id="path11-2-4-3-7-2-9-8-4"
       d="m 1282.1541,1324.8988 a 37.096073,37.096073 0 0 1 -21.3229,38.6204 37.096073,37.096073 0 0 1 -43.1718,-9.0774 37.096073,37.096073 0 0 1 -3.964,-43.9374"
       transform="rotate(143.71605,882.22071,667.75769)" /><path
       style="display:inline;fill:none;fill-opacity:1;stroke:#467da8;stroke-width:1.46543;stroke-linecap:round;stroke-linejoin:miter;stroke-dasharray:none;stroke-opacity:1;paint-order:markers stroke fill"
       id="path12-2-9-8-1-3-2-90-2"
       d="m 1279.0146,1325.5437 a 33.945351,33.945351 0 0 1 -18.4367,34.7716 33.945351,33.945351 0 0 1 -38.8943,-6.017 33.945351,33.945351 0 0 1 -7.068,-38.7171"
       transform="rotate(143.71605,882.22071,667.75769)" /><path
       style="display:inline;fill:none;fill-opacity:1;stroke:#467da8;stroke-width:1.46543;stroke-linecap:round;stroke-linejoin:miter;stroke-dasharray:none;stroke-opacity:1;paint-order:markers stroke fill"
       id="path13-8-2-2-1-3-7-7-9"
       d="m 1275.825,1326.3608 a 30.78512,30.78512 0 0 1 -16.0476,30.8255 30.78512,30.78512 0 0 1 -34.5473,-3.7698 30.78512,30.78512 0 0 1 -9.0218,-33.561"
       transform="rotate(143.71605,882.22071,667.75769)" /><path
       style="display:inline;fill:none;fill-opacity:1;stroke:#467da8;stroke-width:1.46543;stroke-linecap:round;stroke-linejoin:miter;stroke-dasharray:none;stroke-opacity:1;paint-order:markers stroke fill"
       id="path14-2-9-5-5-4-9-8-3"
       d="m 1272.7086,1326.8362 a 27.73671,27.73671 0 0 1 -13.7195,27.3131 27.73671,27.73671 0 0 1 -30.5069,-1.8873 27.73671,27.73671 0 0 1 -10.2482,-28.796"
       transform="rotate(143.71605,882.22071,667.75769)" /><path
       style="display:inline;fill:none;fill-opacity:1;stroke:#3da639;stroke-width:1.46543;stroke-linecap:round;stroke-linejoin:miter;stroke-dasharray:none;stroke-opacity:1;paint-order:markers stroke fill"
       id="path15-8-3-2-2-1-5-1-0"
       d="m -1278.4297,-1316.1878 a 43.388584,43.388584 0 0 1 -25.9809,48.7744 43.388584,43.388584 0 0 1 -52.8039,-16.3002 43.388584,43.388584 0 0 1 6.0329,-54.9324 43.388584,43.388584 0 0 1 55.083,-4.4516"
       transform="rotate(-35.874012,2050.7077,-2729.5683)" /><path
       style="display:inline;fill:none;fill-opacity:1;stroke:#3da639;stroke-width:1.46543;stroke-linecap:round;stroke-linejoin:miter;stroke-dasharray:none;stroke-opacity:1;paint-order:markers stroke fill"
       id="path16-9-4-0-7-1-4-5-7"
       d="m -1297.6232,-1312.004 a 24.410404,24.410404 0 0 1 -18.5324,28.6808 24.410404,24.410404 0 0 1 -29.0737,-17.9095 24.410404,24.410404 0 0 1 17.2781,-29.4533 24.410404,24.410404 0 0 1 29.8191,16.6389"
       transform="rotate(-35.874012,2050.7077,-2729.5683)" /><path
       style="display:inline;fill:none;fill-opacity:1;stroke:#467da8;stroke-width:1.46543;stroke-linecap:round;stroke-linejoin:miter;stroke-dasharray:none;stroke-opacity:1;paint-order:markers stroke fill"
       id="path17-0-4-3-6-3-3-8-7"
       d="m -1281.61,-1315.4981 a 40.245911,40.245911 0 0 1 -24.2212,45.2918 40.245911,40.245911 0 0 1 -49.0013,-15.3909 40.245911,40.245911 0 0 1 6.0255,-51.0069 40.245911,40.245911 0 0 1 51.2388,-3.5494"
       transform="rotate(-35.874012,2050.7077,-2729.5683)" /><path
       style="display:inline;fill:none;fill-opacity:1;stroke:#467da8;stroke-width:1.46543;stroke-linecap:round;stroke-linejoin:miter;stroke-dasharray:none;stroke-opacity:1;paint-order:markers stroke fill"
       id="path18-7-0-7-1-8-1-6-8"
       d="m -1284.8712,-1314.9158 a 37.096073,37.096073 0 0 1 -22.5398,41.8338 37.096073,37.096073 0 0 1 -45.2008,-14.6629 37.096073,37.096073 0 0 1 6.3096,-47.0989 37.096073,37.096073 0 0 1 47.4663,-2.2489"
       transform="rotate(-35.874012,2050.7077,-2729.5683)" /><path
       style="display:inline;fill:none;fill-opacity:1;stroke:#467da8;stroke-width:1.46543;stroke-linecap:round;stroke-linejoin:miter;stroke-dasharray:none;stroke-opacity:1;paint-order:markers stroke fill"
       id="path19-8-5-2-4-7-2-1-7"
       d="m -1287.9812,-1314.1075 a 33.945351,33.945351 0 0 1 -20.8687,38.3772 33.945351,33.945351 0 0 1 -41.3939,-13.9591 33.945351,33.945351 0 0 1 6.6337,-43.1776 33.945351,33.945351 0 0 1 43.6751,-0.8894"
       transform="rotate(-35.874012,2050.7077,-2729.5683)" /><path
       style="display:inline;fill:none;fill-opacity:1;stroke:#467da8;stroke-width:1.46543;stroke-linecap:round;stroke-linejoin:miter;stroke-dasharray:none;stroke-opacity:1;paint-order:markers stroke fill"
       id="path20-1-9-9-2-4-3-2-3"
       d="m -1291.1768,-1313.4103 a 30.78512,30.78512 0 0 1 -19.2963,34.9468 30.78512,30.78512 0 0 1 -37.5736,-13.4853 30.78512,30.78512 0 0 1 7.3303,-39.2415 30.78512,30.78512 0 0 1 39.9081,0.9882"
       transform="rotate(-35.874012,2050.7077,-2729.5683)" /><path
       style="display:inline;fill:none;fill-opacity:1;stroke:#467da8;stroke-width:1.46543;stroke-linecap:round;stroke-linejoin:miter;stroke-dasharray:none;stroke-opacity:1;paint-order:markers stroke fill"
       id="path21-5-6-7-3-2-3-4-0"
       d="m -1294.278,-1312.8284 a 27.73671,27.73671 0 0 1 -17.7947,31.7345 27.73671,27.73671 0 0 1 -33.909,-13.1875 27.73671,27.73671 0 0 1 8.3218,-35.4186 27.73671,27.73671 0 0 1 36.2338,3.2929"
       transform="rotate(-35.874012,2050.7077,-2729.5683)" /><path
       style="display:inline;fill:none;fill-opacity:1;stroke:#3da639;stroke-width:1.46543;stroke-linecap:round;stroke-linejoin:round;stroke-dasharray:none;stroke-opacity:1"
       d="m -1783.8865,-298.47927 0.011,32.9075 9.0559,-8.9686 9.0596,9.0929 0.018,-33.036 v 0"
       id="path22-8-3-5-2-7-4-2-3"
       transform="translate(1988.5442,683.94612)" /></g></svg>
