<?xml version="1.0" encoding="UTF-8" standalone="no"?>
<!-- Created with Inkscape (http://www.inkscape.org/) -->

<svg
   width="267.1973mm"
   height="267.36118mm"
   viewBox="0 0 267.1973 267.36118"
   version="1.1"
   id="svg3487"
   xml:space="preserve"
   xmlns="http://www.w3.org/2000/svg"
   xmlns:svg="http://www.w3.org/2000/svg"><defs
     id="defs3484" /><style
     type="text/css"
     id="style1">
	.st0{fill:#193E4F;}
	.st1{fill:none;}
</style><g
     id="g5"
     style="display:inline"
     transform="translate(2026.5346,762.8419)"><g
       id="g23-9-9-8-2-93-2-1-6-3-6"
       transform="matrix(0.29502639,0,0.00119921,0.33540764,-1807.1247,-850.03879)"
       style="display:inline;fill:none;fill-opacity:1;stroke:#000000;stroke-opacity:1"><rect
         style="display:inline;fill:none;fill-opacity:1;fill-rule:nonzero;stroke:#000000;stroke-width:4.05824;stroke-linecap:round;stroke-linejoin:miter;stroke-dasharray:none;stroke-opacity:1;paint-order:markers stroke fill"
         id="rect4-2-4-0-6-9-1-2-3-5-3-8"
         width="898.6319"
         height="793.06482"
         x="-742.85217"
         y="262.00201"
         rx="21.869841"
         ry="29.760187" /></g><path
       style="display:inline;fill:none;fill-opacity:1;stroke:#000000;stroke-width:1.83274;stroke-linecap:round;stroke-linejoin:round;stroke-dasharray:none;stroke-opacity:1;paint-order:normal"
       id="path4-6-2-0-8-2-6-7-9-9-3"
       transform="rotate(89.986406)"
       d="m -617.4958,1842.3727 a 22.880173,23.381193 0 0 1 -25.60759,13.8041 22.880173,23.381193 0 0 1 -18.34342,-22.8901 22.880173,23.381193 0 0 1 18.29199,-22.9331 22.880173,23.381193 0 0 1 25.6385,13.7442" /><path
       style="display:inline;fill:none;fill-opacity:1;stroke:#000000;stroke-width:1.83274;stroke-linecap:round;stroke-linejoin:round;stroke-dasharray:none;stroke-opacity:1;paint-order:normal"
       id="path5-8-9-7-8-7-8-4-0-9-4"
       transform="rotate(89.986406)"
       d="m -623.97704,1839.9041 a 16.176199,16.530422 0 0 1 -18.11626,9.5377 16.176199,16.530422 0 0 1 -12.87192,-16.1455 16.176199,16.530422 0 0 1 12.80213,-16.2033 16.176199,16.530422 0 0 1 18.15723,9.456" /><path
       style="display:inline;fill:none;fill-opacity:1;stroke:#000000;stroke-width:1.83274;stroke-linecap:round;stroke-linejoin:round;stroke-dasharray:none;stroke-opacity:1;paint-order:normal"
       id="path6-1-1-7-2-9-5-2-0-8-8"
       transform="rotate(89.986406)"
       d="m -630.28767,1836.9081 a 9.5300484,9.7387342 0 0 1 -10.65453,5.9116 9.5300484,9.7387342 0 0 1 -7.71163,-9.5598 9.5300484,9.7387342 0 0 1 7.71163,-9.5598 9.5300484,9.7387342 0 0 1 10.65453,5.9116" /><path
       style="display:inline;fill:none;fill-opacity:1;stroke:#000000;stroke-width:1.83274;stroke-linecap:round;stroke-linejoin:round;stroke-dasharray:none;stroke-opacity:1;paint-order:normal"
       id="path7-9-5-8-4-5-7-7-6-1-4"
       transform="rotate(89.986406)"
       d="m -610.91097,1844.6062 a 29.639605,30.288645 0 0 1 -33.13687,18.3858 29.639605,30.288645 0 0 1 -23.9841,-29.7321 29.639605,30.288645 0 0 1 23.9841,-29.7322 29.639605,30.288645 0 0 1 33.13687,18.3859" /><path
       style="display:inline;fill:none;fill-opacity:1;stroke:#000000;stroke-width:1.83274;stroke-linecap:round;stroke-linejoin:miter;stroke-dasharray:none;stroke-opacity:1;paint-order:markers stroke fill"
       id="path8-8-0-7-5-4-6-7-1-8-9"
       d="m 1160.3911,1627.3768 a 54.26408,54.26408 0 0 1 -41.4407,51.0442 54.26408,54.26408 0 0 1 -60.2276,-26.3718 54.26408,54.26408 0 0 1 9.4033,-65.0725"
       transform="rotate(143.71605)" /><path
       style="display:inline;fill:none;fill-opacity:1;stroke:#000000;stroke-width:1.83274;stroke-linecap:round;stroke-linejoin:miter;stroke-dasharray:none;stroke-opacity:1;paint-order:markers stroke fill"
       id="path9-9-3-3-5-3-1-9-3-2-9"
       d="m 1135.7716,1623.0196 a 30.528954,30.528954 0 0 1 -14.4793,29.2338 30.528954,30.528954 0 0 1 -32.6188,-0.5361 30.528954,30.528954 0 0 1 -13.5108,-29.6939"
       transform="rotate(143.71605)" /><path
       style="display:inline;fill:none;fill-opacity:1;stroke:#000000;stroke-width:1.83274;stroke-linecap:round;stroke-linejoin:miter;stroke-dasharray:none;stroke-opacity:1;paint-order:markers stroke fill"
       id="path10-7-6-0-1-1-8-3-8-6-2"
       d="m 1155.8838,1618.8503 a 50.333683,50.333683 0 0 1 -30.4612,53.3621 50.333683,50.333683 0 0 1 -59.3639,-15.8531 50.333683,50.333683 0 0 1 0.1977,-61.4439"
       transform="rotate(143.71605)" /><path
       style="display:inline;fill:none;fill-opacity:1;stroke:#000000;stroke-width:1.83274;stroke-linecap:round;stroke-linejoin:miter;stroke-dasharray:none;stroke-opacity:1;paint-order:markers stroke fill"
       id="path11-2-4-3-7-2-9-1-9-6-5"
       d="m 1151.7978,1619.5864 a 46.394329,46.394329 0 0 1 -26.6675,48.3008 46.394329,46.394329 0 0 1 -53.993,-11.3527 46.394329,46.394329 0 0 1 -4.9576,-54.9505"
       transform="rotate(143.71605)" /><path
       style="display:inline;fill:none;fill-opacity:1;stroke:#000000;stroke-width:1.83274;stroke-linecap:round;stroke-linejoin:miter;stroke-dasharray:none;stroke-opacity:1;paint-order:markers stroke fill"
       id="path12-2-9-8-1-3-2-9-3-0-5"
       d="m 1147.8713,1620.393 a 42.453865,42.453865 0 0 1 -23.0579,43.4872 42.453865,42.453865 0 0 1 -48.6433,-7.5252 42.453865,42.453865 0 0 1 -8.8396,-48.4216"
       transform="rotate(143.71605)" /><path
       style="display:inline;fill:none;fill-opacity:1;stroke:#000000;stroke-width:1.83274;stroke-linecap:round;stroke-linejoin:miter;stroke-dasharray:none;stroke-opacity:1;paint-order:markers stroke fill"
       id="path13-8-2-2-1-3-7-8-4-3-3"
       d="m 1143.8822,1621.4149 a 38.501514,38.501514 0 0 1 -20.0699,38.5519 38.501514,38.501514 0 0 1 -43.2068,-4.7147 38.501514,38.501514 0 0 1 -11.283,-41.9731"
       transform="rotate(143.71605)" /><path
       style="display:inline;fill:none;fill-opacity:1;stroke:#000000;stroke-width:1.83274;stroke-linecap:round;stroke-linejoin:miter;stroke-dasharray:none;stroke-opacity:1;paint-order:markers stroke fill"
       id="path14-2-9-5-5-4-9-6-4-8-3"
       d="m 1139.9847,1622.0094 a 34.689011,34.689011 0 0 1 -17.1584,34.1592 34.689011,34.689011 0 0 1 -38.1535,-2.3604 34.689011,34.689011 0 0 1 -12.8169,-36.0137"
       transform="rotate(143.71605)" /><path
       style="display:inline;fill:none;fill-opacity:1;stroke:#000000;stroke-width:1.83274;stroke-linecap:round;stroke-linejoin:miter;stroke-dasharray:none;stroke-opacity:1;paint-order:markers stroke fill"
       id="path15-8-3-2-2-1-5-5-6-0-3"
       d="m -1146.884,-1611.9252 a 54.26408,54.26408 0 0 1 -32.493,61 54.26408,54.26408 0 0 1 -66.0395,-20.386 54.26408,54.26408 0 0 1 7.5451,-68.7013 54.26408,54.26408 0 0 1 68.8898,-5.5674"
       transform="rotate(-35.874012)" /><path
       style="display:inline;fill:none;fill-opacity:1;stroke:#000000;stroke-width:1.83274;stroke-linecap:round;stroke-linejoin:miter;stroke-dasharray:none;stroke-opacity:1;paint-order:markers stroke fill"
       id="path16-9-4-0-7-1-4-0-0-1-7"
       d="m -1170.8884,-1606.6927 a 30.528954,30.528954 0 0 1 -23.1776,35.8696 30.528954,30.528954 0 0 1 -36.3612,-22.3984 30.528954,30.528954 0 0 1 21.609,-36.8359 30.528954,30.528954 0 0 1 37.2934,20.8095"
       transform="rotate(-35.874012)" /><path
       style="display:inline;fill:none;fill-opacity:1;stroke:#000000;stroke-width:1.83274;stroke-linecap:round;stroke-linejoin:miter;stroke-dasharray:none;stroke-opacity:1;paint-order:markers stroke fill"
       id="path17-0-4-3-6-3-3-2-6-2-4"
       d="m -1150.8616,-1611.0626 a 50.333683,50.333683 0 0 1 -30.2922,56.6444 50.333683,50.333683 0 0 1 -61.2837,-19.2487 50.333683,50.333683 0 0 1 7.5358,-63.792 50.333683,50.333683 0 0 1 64.082,-4.4391"
       transform="rotate(-35.874012)" /><path
       style="display:inline;fill:none;fill-opacity:1;stroke:#000000;stroke-width:1.83274;stroke-linecap:round;stroke-linejoin:miter;stroke-dasharray:none;stroke-opacity:1;paint-order:markers stroke fill"
       id="path18-7-0-7-1-8-1-8-6-5-3"
       d="m -1154.9402,-1610.3344 a 46.394329,46.394329 0 0 1 -28.1895,52.3196 46.394329,46.394329 0 0 1 -56.5305,-18.3383 46.394329,46.394329 0 0 1 7.8911,-58.9043 46.394329,46.394329 0 0 1 59.3639,-2.8126"
       transform="rotate(-35.874012)" /><path
       style="display:inline;fill:none;fill-opacity:1;stroke:#000000;stroke-width:1.83274;stroke-linecap:round;stroke-linejoin:miter;stroke-dasharray:none;stroke-opacity:1;paint-order:markers stroke fill"
       id="path19-8-5-2-4-7-2-6-1-0-8"
       d="m -1158.8297,-1609.3233 a 42.453865,42.453865 0 0 1 -26.0995,47.9966 42.453865,42.453865 0 0 1 -51.7694,-17.458 42.453865,42.453865 0 0 1 8.2964,-54.0002 42.453865,42.453865 0 0 1 54.6225,-1.1123"
       transform="rotate(-35.874012)" /><path
       style="display:inline;fill:none;fill-opacity:1;stroke:#000000;stroke-width:1.83274;stroke-linecap:round;stroke-linejoin:miter;stroke-dasharray:none;stroke-opacity:1;paint-order:markers stroke fill"
       id="path20-1-9-9-2-4-3-0-8-9-0"
       d="m -1162.8264,-1608.4514 a 38.501514,38.501514 0 0 1 -24.1329,43.7064 38.501514,38.501514 0 0 1 -46.9915,-16.8655 38.501514,38.501514 0 0 1 9.1676,-49.0775 38.501514,38.501514 0 0 1 49.9112,1.2359"
       transform="rotate(-35.874012)" /><path
       style="display:inline;fill:none;fill-opacity:1;stroke:#000000;stroke-width:1.83274;stroke-linecap:round;stroke-linejoin:miter;stroke-dasharray:none;stroke-opacity:1;paint-order:markers stroke fill"
       id="path21-5-6-7-3-2-3-2-4-4-8"
       d="m -1166.7047,-1607.7236 a 34.689011,34.689011 0 0 1 -22.255,39.6889 34.689011,34.689011 0 0 1 -42.4084,-16.4931 34.689011,34.689011 0 0 1 10.4076,-44.2963 34.689011,34.689011 0 0 1 45.3159,4.1182"
       transform="rotate(-35.874012)" /><path
       style="display:inline;fill:none;fill-opacity:1;stroke:#000000;stroke-width:1.83274;stroke-linecap:round;stroke-linejoin:round;stroke-dasharray:none;stroke-opacity:1"
       d="m -1844.7503,-610.47349 0.014,41.156 11.3258,-11.2166 11.3304,11.372 0.023,-41.3166 v 0"
       id="path22-8-3-5-2-7-4-4-9-7-8" /></g></svg>
