<?xml version="1.0" encoding="UTF-8" standalone="no"?>
<!-- Created with Inkscape (http://www.inkscape.org/) -->

<svg
   width="173.79588mm"
   height="189.84485mm"
   viewBox="0 0 173.79589 189.84485"
   version="1.1"
   id="svg3487"
   xml:space="preserve"
   xmlns="http://www.w3.org/2000/svg"
   xmlns:svg="http://www.w3.org/2000/svg"><defs
     id="defs3484" /><style
     type="text/css"
     id="style1">
	.st0{fill:#193E4F;}
	.st1{fill:none;}
</style><g
     id="layer5"
     transform="translate(-373.3783,-306.89197)"><path
       d="m -1112.6108,-531.27068 q -3.1424,0 -5.8098,-1.0962 -2.6674,-1.0962 -4.6771,-3.0693 -1.9731,-2.0097 -3.0693,-4.6771 -1.0962,-2.6674 -1.0962,-5.8098 0,-3.1424 1.0962,-5.7733 1.0962,-2.6674 3.0693,-4.6405 2.0097,-2.0097 4.6771,-3.1059 2.6674,-1.0962 5.8098,-1.0962 3.1424,0 5.7733,1.0962 2.6674,1.0962 4.6405,3.1059 2.0097,1.9731 3.1059,4.6405 1.0962,2.6309 1.0962,5.7733 0,3.1424 -1.0962,5.8098 -1.0962,2.6674 -3.1059,4.6771 -1.9731,1.9731 -4.6405,3.0693 -2.6309,1.0962 -5.7733,1.0962 z m 0,-2.1924 q 2.6309,0 4.8964,-0.9135 2.2654,-0.95 3.9462,-2.6308 1.7174,-1.7174 2.6309,-3.9829 0.95,-2.2654 0.95,-4.9328 0,-2.6309 -0.95,-4.8963 -0.9135,-2.2655 -2.6309,-3.9463 -1.6808,-1.7174 -3.9462,-2.6309 -2.2655,-0.95 -4.8964,-0.95 -2.6674,0 -4.9328,0.95 -2.2655,0.9135 -3.9829,2.6309 -1.6808,1.6808 -2.6308,3.9463 -0.9135,2.2654 -0.9135,4.8963 0,2.6674 0.9135,4.9328 0.95,2.2655 2.6308,3.9829 1.7174,1.6808 3.9829,2.6308 2.2654,0.9135 4.9328,0.9135 z m 35.2927,2.1924 q -2.302,0 -4.2386,-0.6212 -1.9001,-0.6577 -3.2886,-1.827 -1.3885,-1.2058 -2.1924,-2.8135 -0.2192,-0.4385 -0.037,-0.8404 0.2192,-0.402 0.6942,-0.5481 0.402,-0.1462 0.8039,0.036 0.402,0.1827 0.6212,0.5846 0.6577,1.1693 1.7174,2.0463 1.0961,0.8769 2.5577,1.3519 1.4982,0.4385 3.3617,0.4385 2.0828,0 3.5809,-0.6942 1.5346,-0.6943 2.3385,-2.0463 0.8404,-1.3519 0.8404,-3.2885 0,-2.4117 -1.7539,-4.0559 -1.7173,-1.6809 -5.2617,-2.1559 -4.0924,-0.5846 -6.3944,-2.6308 -2.302,-2.0828 -2.302,-5.0425 0,-2.1559 1.0596,-3.7636 1.0962,-1.6078 3.0328,-2.4847 1.9732,-0.9135 4.5309,-0.9135 1.9001,0 3.5078,0.6212 1.6078,0.6211 2.8136,1.6443 1.2058,0.9865 1.8635,2.0827 0.2558,0.402 0.1096,0.877 -0.1096,0.4384 -0.5846,0.6211 -0.4019,0.1462 -0.8039,0.037 -0.4019,-0.1462 -0.6577,-0.5116 -0.5115,-0.7673 -1.3154,-1.4981 -0.8039,-0.7308 -2.0097,-1.2058 -1.2058,-0.475 -2.9232,-0.475 -2.9962,0 -4.7136,1.3519 -1.7174,1.352 -1.7174,3.8367 0,1.3154 0.6943,2.4116 0.7308,1.0597 2.2655,1.827 1.5346,0.7674 3.9097,1.1693 4.7136,0.8039 6.7599,2.9232 2.0827,2.0827 2.0827,5.3348 0,1.9 -0.6577,3.4347 -0.6212,1.5347 -1.827,2.5943 -1.1693,1.0597 -2.8135,1.6443 -1.6443,0.5481 -3.654,0.5481 z m 29.8117,0 q -2.302,0 -4.2386,-0.6212 -1.9001,-0.6577 -3.2886,-1.827 -1.3885,-1.2058 -2.1924,-2.8135 -0.2192,-0.4385 -0.037,-0.8404 0.2192,-0.402 0.6942,-0.5481 0.402,-0.1462 0.8039,0.036 0.4019,0.1827 0.6212,0.5846 0.6577,1.1693 1.7173,2.0463 1.0962,0.8769 2.5578,1.3519 1.4981,0.4385 3.3617,0.4385 2.0827,0 3.5809,-0.6942 1.5346,-0.6943 2.3385,-2.0463 0.8404,-1.3519 0.8404,-3.2885 0,-2.4117 -1.7539,-4.0559 -1.7174,-1.6809 -5.2617,-2.1559 -4.0925,-0.5846 -6.3945,-2.6308 -2.302,-2.0828 -2.302,-5.0425 0,-2.1559 1.0597,-3.7636 1.0962,-1.6078 3.0328,-2.4847 1.9731,-0.9135 4.5309,-0.9135 1.9001,0 3.5078,0.6212 1.6078,0.6211 2.8136,1.6443 1.2058,0.9865 1.8635,2.0827 0.2558,0.402 0.1096,0.877 -0.1096,0.4384 -0.5846,0.6211 -0.4019,0.1462 -0.8039,0.037 -0.4019,-0.1462 -0.6577,-0.5116 -0.5116,-0.7673 -1.3154,-1.4981 -0.8039,-0.7308 -2.0097,-1.2058 -1.2058,-0.475 -2.9232,-0.475 -2.9962,0 -4.7136,1.3519 -1.7174,1.352 -1.7174,3.8367 0,1.3154 0.6943,2.4116 0.7308,1.0597 2.2654,1.827 1.5347,0.7674 3.9098,1.1693 4.7136,0.8039 6.7598,2.9232 2.0828,2.0827 2.0828,5.3348 0,1.9 -0.6577,3.4347 -0.6212,1.5347 -1.827,2.5943 -1.1693,1.0597 -2.8136,1.6443 -1.6442,0.5481 -3.6539,0.5481 z m 22.3576,-0.3654 q -0.4751,0 -0.8039,-0.2923 -0.2923,-0.3289 -0.2923,-0.8039 v -26.3451 q 0,-0.475 0.2923,-0.7674 0.3288,-0.3288 0.8039,-0.3288 0.475,0 0.7673,0.3288 0.3288,0.2924 0.3288,0.7674 v 26.3451 q 0,0.475 -0.3288,0.8039 -0.2923,0.2923 -0.7673,0.2923 z m 27.50969,0.3654 q -2.92319,0 -5.51749,-1.1327 -2.5578,-1.1693 -4.5309,-3.179 -1.9732,-2.0462 -3.1059,-4.6771 -1.1327,-2.6674 -1.1327,-5.6636 0,-2.9597 1.0962,-5.5906 1.0961,-2.6674 3.0327,-4.6771 1.9732,-2.0462 4.5675,-3.1789 2.5943,-1.1693 5.59059,-1.1693 2.5212,0 4.7867,0.8039 2.2654,0.8038 4.2386,2.4481 0.3288,0.2558 0.3288,0.7308 0,0.4385 -0.2923,0.8039 -0.2923,0.3289 -0.8038,0.3289 -0.1462,0 -0.2924,-0.037 -0.1461,-0.073 -0.2923,-0.1461 -0.1461,-0.1097 -0.3288,-0.2558 -1.4616,-1.3155 -3.3252,-1.9001 -1.8635,-0.5846 -4.0193,-0.5846 -2.44819,0 -4.64059,1.0231 -2.1923,0.9866 -3.8732,2.7405 -1.6808,1.7173 -2.6308,3.9463 -0.9501,2.2289 -0.9501,4.7136 0,2.5578 0.9501,4.8232 0.95,2.2655 2.5943,3.9828 1.6808,1.7174 3.8732,2.704 2.1924,0.95 4.67709,0.95 2.1558,0 4.0193,-0.6577 1.9001,-0.6577 3.5444,-2.0097 0.2923,-0.2558 0.6943,-0.1827 0.4019,0.073 0.6942,0.3654 0.2923,0.2923 0.2923,0.7673 0,0.2193 -0.037,0.402 -0.037,0.1827 -0.2193,0.3654 -1.7904,1.7904 -4.1655,2.4847 -2.3385,0.6577 -4.8232,0.6577 z m 9.2445,-3.9098 -2.1924,-0.475 v -7.8925 h -6.1386 q -0.475,0 -0.8039,-0.2924 -0.2923,-0.2923 -0.2923,-0.7308 0,-0.4019 0.2923,-0.6577 0.3289,-0.2923 0.8039,-0.2923 h 7.2348 q 0.5116,0 0.8039,0.2923 0.2923,0.2923 0.2923,0.7674 z m 13.3324,3.5444 q -0.4751,0 -0.8039,-0.2923 -0.2923,-0.3289 -0.2923,-0.8039 v -26.3451 q 0,-0.475 0.2923,-0.7674 0.3288,-0.3288 0.8039,-0.3288 0.5115,0 0.8404,0.3654 l 18.5621,24.1527 v -23.4219 q 0,-0.475 0.2924,-0.7674 0.3288,-0.3288 0.8038,-0.3288 0.4385,0 0.7674,0.3288 0.3288,0.2924 0.3288,0.7674 v 26.3451 q 0,0.475 -0.3288,0.8039 -0.3289,0.2923 -0.7674,0.2923 -0.2558,0 -0.475,-0.073 -0.1827,-0.1096 -0.3288,-0.2558 l -18.5988,-24.1892 v 23.4219 q 0,0.475 -0.3288,0.8039 -0.2923,0.2923 -0.7673,0.2923 z"
       id="text4-8-8-8-1-8-0-8-1"
       style="-inkscape-font-specification:'Comfortaa Light';display:inline;fill:#000000;fill-opacity:1;stroke-width:31.1101"
       aria-label="OSSIGN"
       transform="translate(1500.6415,1028.0075)" /><path
       style="display:inline;fill:none;fill-opacity:1;stroke:#000000;stroke-width:1.46543;stroke-linecap:round;stroke-linejoin:round;stroke-dasharray:none;stroke-opacity:1;paint-order:normal"
       id="path4-6-2-0-8-2-6-7-9-1-6"
       transform="rotate(89.986406,236.19502,1264.5025)"
       d="m -646.2167,1010.612 a 18.294577,18.695183 0 0 1 -20.47537,11.0376 18.294577,18.695183 0 0 1 -14.66707,-18.3025 18.294577,18.695183 0 0 1 14.62595,-18.33691 18.294577,18.695183 0 0 1 20.50009,10.98955" /><path
       style="display:inline;fill:none;fill-opacity:1;stroke:#000000;stroke-width:1.46543;stroke-linecap:round;stroke-linejoin:round;stroke-dasharray:none;stroke-opacity:1;paint-order:normal"
       id="path5-8-9-7-8-7-8-4-0-95-3"
       transform="rotate(89.986406,236.19502,1264.5025)"
       d="m -651.39889,1008.6382 a 12.934198,13.217429 0 0 1 -14.48543,7.6262 12.934198,13.217429 0 0 1 -10.29216,-12.9096 12.934198,13.217429 0 0 1 10.23636,-12.95589 12.934198,13.217429 0 0 1 14.5182,7.56083" /><path
       style="display:inline;fill:none;fill-opacity:1;stroke:#000000;stroke-width:1.46543;stroke-linecap:round;stroke-linejoin:round;stroke-dasharray:none;stroke-opacity:1;paint-order:normal"
       id="path6-1-1-7-2-9-5-2-0-3-3"
       transform="rotate(89.986406,236.19502,1264.5025)"
       d="m -656.4447,1006.2427 a 7.6200557,7.7869172 0 0 1 -8.51916,4.7268 7.6200557,7.7869172 0 0 1 -6.16608,-7.6439 7.6200557,7.7869172 0 0 1 6.16608,-7.64383 7.6200557,7.7869172 0 0 1 8.51916,4.72683" /><path
       style="display:inline;fill:none;fill-opacity:1;stroke:#000000;stroke-width:1.46543;stroke-linecap:round;stroke-linejoin:round;stroke-dasharray:none;stroke-opacity:1;paint-order:normal"
       id="path7-9-5-8-4-5-7-7-6-2-5"
       transform="rotate(89.986406,236.19502,1264.5025)"
       d="m -640.95157,1012.3979 a 23.699297,24.218258 0 0 1 -26.49564,14.701 23.699297,24.218258 0 0 1 -19.17726,-23.7733 23.699297,24.218258 0 0 1 19.17726,-23.77328 23.699297,24.218258 0 0 1 26.49564,14.70098" /><path
       style="display:inline;fill:none;fill-opacity:1;stroke:#000000;stroke-width:1.46543;stroke-linecap:round;stroke-linejoin:miter;stroke-dasharray:none;stroke-opacity:1;paint-order:markers stroke fill"
       id="path8-8-0-7-5-4-6-7-1-5-5"
       d="m 464.72629,1150.5315 a 43.388584,43.388584 0 0 1 -33.1352,40.8141 43.388584,43.388584 0 0 1 -48.15694,-21.0865 43.388584,43.388584 0 0 1 7.51872,-52.0307"
       transform="rotate(143.71605,581.90153,759.85494)" /><path
       style="display:inline;fill:none;fill-opacity:1;stroke:#000000;stroke-width:1.46543;stroke-linecap:round;stroke-linejoin:miter;stroke-dasharray:none;stroke-opacity:1;paint-order:markers stroke fill"
       id="path9-9-3-3-5-3-1-9-3-25-3"
       d="m 445.04095,1147.0477 a 24.410404,24.410404 0 0 1 -11.57743,23.3749 24.410404,24.410404 0 0 1 -26.08137,-0.4287 24.410404,24.410404 0 0 1 -10.80299,-23.7427"
       transform="rotate(143.71605,581.90153,759.85494)" /><path
       style="display:inline;fill:none;fill-opacity:1;stroke:#000000;stroke-width:1.46543;stroke-linecap:round;stroke-linejoin:miter;stroke-dasharray:none;stroke-opacity:1;paint-order:markers stroke fill"
       id="path10-7-6-0-1-1-8-3-8-8-2"
       d="m 461.12241,1143.7139 a 40.245911,40.245911 0 0 1 -24.35623,42.6674 40.245911,40.245911 0 0 1 -47.46637,-12.6758 40.245911,40.245911 0 0 1 0.15808,-49.1295"
       transform="rotate(143.71605,581.90153,759.85494)" /><path
       style="display:inline;fill:none;fill-opacity:1;stroke:#000000;stroke-width:1.46543;stroke-linecap:round;stroke-linejoin:miter;stroke-dasharray:none;stroke-opacity:1;paint-order:markers stroke fill"
       id="path11-2-4-3-7-2-9-1-9-67-8"
       d="m 457.85525,1144.3026 a 37.096073,37.096073 0 0 1 -21.32291,38.6204 37.096073,37.096073 0 0 1 -43.17183,-9.0774 37.096073,37.096073 0 0 1 -3.96402,-43.9374"
       transform="rotate(143.71605,581.90153,759.85494)" /><path
       style="display:inline;fill:none;fill-opacity:1;stroke:#000000;stroke-width:1.46543;stroke-linecap:round;stroke-linejoin:miter;stroke-dasharray:none;stroke-opacity:1;paint-order:markers stroke fill"
       id="path12-2-9-8-1-3-2-9-3-7-2"
       d="m 454.71566,1144.9476 a 33.945351,33.945351 0 0 1 -18.43666,34.7715 33.945351,33.945351 0 0 1 -38.89431,-6.0169 33.945351,33.945351 0 0 1 -7.06797,-38.7171"
       transform="rotate(143.71605,581.90153,759.85494)" /><path
       style="display:inline;fill:none;fill-opacity:1;stroke:#000000;stroke-width:1.46543;stroke-linecap:round;stroke-linejoin:miter;stroke-dasharray:none;stroke-opacity:1;paint-order:markers stroke fill"
       id="path13-8-2-2-1-3-7-8-4-2-5"
       d="m 451.52606,1145.7646 a 30.78512,30.78512 0 0 1 -16.04754,30.8255 30.78512,30.78512 0 0 1 -34.54737,-3.7698 30.78512,30.78512 0 0 1 -9.02174,-33.561"
       transform="rotate(143.71605,581.90153,759.85494)" /><path
       style="display:inline;fill:none;fill-opacity:1;stroke:#000000;stroke-width:1.46543;stroke-linecap:round;stroke-linejoin:miter;stroke-dasharray:none;stroke-opacity:1;paint-order:markers stroke fill"
       id="path14-2-9-5-5-4-9-6-4-2-3"
       d="m 448.40964,1146.24 a 27.73671,27.73671 0 0 1 -13.71948,27.3131 27.73671,27.73671 0 0 1 -30.50687,-1.8873 27.73671,27.73671 0 0 1 -10.2482,-28.796"
       transform="rotate(143.71605,581.90153,759.85494)" /><path
       style="display:inline;fill:none;fill-opacity:1;stroke:#000000;stroke-width:1.46543;stroke-linecap:round;stroke-linejoin:miter;stroke-dasharray:none;stroke-opacity:1;paint-order:markers stroke fill"
       id="path15-8-3-2-2-1-5-5-6-9-6"
       d="m -452.85989,-1141.4939 a 43.388584,43.388584 0 0 1 -25.98083,48.7745 43.388584,43.388584 0 0 1 -52.80393,-16.3003 43.388584,43.388584 0 0 1 6.03293,-54.9323 43.388584,43.388584 0 0 1 55.083,-4.4516"
       transform="rotate(-35.874012,2338.1998,-1803.9143)" /><path
       style="display:inline;fill:none;fill-opacity:1;stroke:#000000;stroke-width:1.46543;stroke-linecap:round;stroke-linejoin:miter;stroke-dasharray:none;stroke-opacity:1;paint-order:markers stroke fill"
       id="path16-9-4-0-7-1-4-0-0-4-1"
       d="m -472.05332,-1137.31 a 24.410404,24.410404 0 0 1 -18.53235,28.6807 24.410404,24.410404 0 0 1 -29.07376,-17.9094 24.410404,24.410404 0 0 1 17.27817,-29.4533 24.410404,24.410404 0 0 1 29.8191,16.6389"
       transform="rotate(-35.874012,2338.1998,-1803.9143)" /><path
       style="display:inline;fill:none;fill-opacity:1;stroke:#000000;stroke-width:1.46543;stroke-linecap:round;stroke-linejoin:miter;stroke-dasharray:none;stroke-opacity:1;paint-order:markers stroke fill"
       id="path17-0-4-3-6-3-3-2-6-1-8"
       d="m -456.04022,-1140.8041 a 40.245911,40.245911 0 0 1 -24.22115,45.2918 40.245911,40.245911 0 0 1 -49.00134,-15.3909 40.245911,40.245911 0 0 1 6.02552,-51.0069 40.245911,40.245911 0 0 1 51.23879,-3.5495"
       transform="rotate(-35.874012,2338.1998,-1803.9143)" /><path
       style="display:inline;fill:none;fill-opacity:1;stroke:#000000;stroke-width:1.46543;stroke-linecap:round;stroke-linejoin:miter;stroke-dasharray:none;stroke-opacity:1;paint-order:markers stroke fill"
       id="path18-7-0-7-1-8-1-8-6-9-6"
       d="m -459.30136,-1140.2218 a 37.096073,37.096073 0 0 1 -22.53985,41.8338 37.096073,37.096073 0 0 1 -45.20079,-14.663 37.096073,37.096073 0 0 1 6.30957,-47.0988 37.096073,37.096073 0 0 1 47.46637,-2.2489"
       transform="rotate(-35.874012,2338.1998,-1803.9143)" /><path
       style="display:inline;fill:none;fill-opacity:1;stroke:#000000;stroke-width:1.46543;stroke-linecap:round;stroke-linejoin:miter;stroke-dasharray:none;stroke-opacity:1;paint-order:markers stroke fill"
       id="path19-8-5-2-4-7-2-6-1-6-2"
       d="m -462.4114,-1139.4135 a 33.945351,33.945351 0 0 1 -20.86869,38.3772 33.945351,33.945351 0 0 1 -41.39391,-13.9591 33.945351,33.945351 0 0 1 6.63365,-43.1776 33.945351,33.945351 0 0 1 43.67516,-0.8894"
       transform="rotate(-35.874012,2338.1998,-1803.9143)" /><path
       style="display:inline;fill:none;fill-opacity:1;stroke:#000000;stroke-width:1.46543;stroke-linecap:round;stroke-linejoin:miter;stroke-dasharray:none;stroke-opacity:1;paint-order:markers stroke fill"
       id="path20-1-9-9-2-4-3-0-8-98-1"
       d="m -465.60704,-1138.7164 a 30.78512,30.78512 0 0 1 -19.29625,34.9469 30.78512,30.78512 0 0 1 -37.57358,-13.4853 30.78512,30.78512 0 0 1 7.3303,-39.2415 30.78512,30.78512 0 0 1 39.90805,0.9882"
       transform="rotate(-35.874012,2338.1998,-1803.9143)" /><path
       style="display:inline;fill:none;fill-opacity:1;stroke:#000000;stroke-width:1.46543;stroke-linecap:round;stroke-linejoin:miter;stroke-dasharray:none;stroke-opacity:1;paint-order:markers stroke fill"
       id="path21-5-6-7-3-2-3-2-4-2-4"
       d="m -468.7082,-1138.1344 a 27.73671,27.73671 0 0 1 -17.7947,31.7345 27.73671,27.73671 0 0 1 -33.90897,-13.1875 27.73671,27.73671 0 0 1 8.32178,-35.4186 27.73671,27.73671 0 0 1 36.23377,3.2928"
       transform="rotate(-35.874012,2338.1998,-1803.9143)" /><path
       style="display:inline;fill:none;fill-opacity:1;stroke:#000000;stroke-width:1.46543;stroke-linecap:round;stroke-linejoin:round;stroke-dasharray:none;stroke-opacity:1"
       d="m -1012.5495,-640.71138 0.011,32.9075 9.0559,-8.9686 9.05959,9.0929 0.018,-33.036 v 0"
       id="path22-8-3-5-2-7-4-4-9-5-6"
       transform="translate(1500.6415,1028.0075)" /></g></svg>
