<?xml version="1.0" encoding="UTF-8" standalone="no"?>
<!-- Created with Inkscape (http://www.inkscape.org/) -->

<svg
   width="167.30736mm"
   height="172.07648mm"
   viewBox="0 0 167.30736 172.07648"
   version="1.1"
   id="svg3487"
   xml:space="preserve"
   xmlns="http://www.w3.org/2000/svg"
   xmlns:svg="http://www.w3.org/2000/svg"><defs
     id="defs3484" /><style
     type="text/css"
     id="style1">
	.st0{fill:#193E4F;}
	.st1{fill:none;}
</style><g
     id="layer3"
     transform="translate(-742.42782,-26.904024)"><path
       style="display:inline;fill:none;fill-opacity:1;stroke:#ffffff;stroke-width:1.83274;stroke-linecap:round;stroke-linejoin:round;stroke-dasharray:none;stroke-opacity:1;paint-order:normal"
       id="path4-6-2-0-8-2-6-7-0-7-2"
       transform="rotate(89.986406,1133.0523,1875.8513)"
       d="m -621.98579,2142.7297 a 22.880173,23.381193 0 0 1 -25.60759,13.8042 22.880173,23.381193 0 0 1 -18.34342,-22.8901 22.880173,23.381193 0 0 1 18.29199,-22.9331 22.880173,23.381193 0 0 1 25.6385,13.7441" /><path
       style="display:inline;fill:none;fill-opacity:1;stroke:#ffffff;stroke-width:1.83274;stroke-linecap:round;stroke-linejoin:round;stroke-dasharray:none;stroke-opacity:1;paint-order:normal"
       id="path5-8-9-7-8-7-8-4-1-7-0"
       transform="rotate(89.986406,1133.0523,1875.8513)"
       d="m -628.46703,2140.2611 a 16.176199,16.530422 0 0 1 -18.11626,9.5377 16.176199,16.530422 0 0 1 -12.87192,-16.1454 16.176199,16.530422 0 0 1 12.80213,-16.2033 16.176199,16.530422 0 0 1 18.15723,9.456" /><path
       style="display:inline;fill:none;fill-opacity:1;stroke:#ffffff;stroke-width:1.83274;stroke-linecap:round;stroke-linejoin:round;stroke-dasharray:none;stroke-opacity:1;paint-order:normal"
       id="path6-1-1-7-2-9-5-2-6-8-3"
       transform="rotate(89.986406,1133.0523,1875.8513)"
       d="m -634.77766,2137.2651 a 9.5300484,9.7387342 0 0 1 -10.65453,5.9116 9.5300484,9.7387342 0 0 1 -7.71163,-9.5598 9.5300484,9.7387342 0 0 1 7.71163,-9.5598 9.5300484,9.7387342 0 0 1 10.65453,5.9116" /><path
       style="display:inline;fill:none;fill-opacity:1;stroke:#ffffff;stroke-width:1.83274;stroke-linecap:round;stroke-linejoin:round;stroke-dasharray:none;stroke-opacity:1;paint-order:normal"
       id="path7-9-5-8-4-5-7-7-5-3-7"
       transform="rotate(89.986406,1133.0523,1875.8513)"
       d="m -615.40096,2144.9633 a 29.639605,30.288645 0 0 1 -33.13687,18.3858 29.639605,30.288645 0 0 1 -23.9841,-29.7322 29.639605,30.288645 0 0 1 23.9841,-29.7321 29.639605,30.288645 0 0 1 33.13687,18.3858" /><path
       style="display:inline;fill:none;fill-opacity:1;stroke:#ffffff;stroke-width:1.83274;stroke-linecap:round;stroke-linejoin:miter;stroke-dasharray:none;stroke-opacity:1;paint-order:markers stroke fill"
       id="path8-8-0-7-5-4-6-7-7-8-2"
       d="m 1399.8932,1808.6866 a 54.26408,54.26408 0 0 1 -41.4407,51.0442 54.26408,54.26408 0 0 1 -60.2276,-26.3718 54.26408,54.26408 0 0 1 9.4033,-65.0724"
       transform="rotate(143.71605,1382.697,864.08377)" /><path
       style="display:inline;fill:none;fill-opacity:1;stroke:#ffffff;stroke-width:1.83274;stroke-linecap:round;stroke-linejoin:miter;stroke-dasharray:none;stroke-opacity:1;paint-order:markers stroke fill"
       id="path9-9-3-3-5-3-1-9-5-3-9"
       d="m 1375.2736,1804.3294 a 30.528954,30.528954 0 0 1 -14.4794,29.2339 30.528954,30.528954 0 0 1 -32.6187,-0.5362 30.528954,30.528954 0 0 1 -13.5108,-29.6939"
       transform="rotate(143.71605,1382.697,864.08377)" /><path
       style="display:inline;fill:none;fill-opacity:1;stroke:#ffffff;stroke-width:1.83274;stroke-linecap:round;stroke-linejoin:miter;stroke-dasharray:none;stroke-opacity:1;paint-order:markers stroke fill"
       id="path10-7-6-0-1-1-8-3-4-7-7"
       d="m 1395.3859,1800.1601 a 50.333683,50.333683 0 0 1 -30.4612,53.3622 50.333683,50.333683 0 0 1 -59.364,-15.8532 50.333683,50.333683 0 0 1 0.1977,-61.4439"
       transform="rotate(143.71605,1382.697,864.08377)" /><path
       style="display:inline;fill:none;fill-opacity:1;stroke:#ffffff;stroke-width:1.83274;stroke-linecap:round;stroke-linejoin:miter;stroke-dasharray:none;stroke-opacity:1;paint-order:markers stroke fill"
       id="path11-2-4-3-7-2-9-1-1-1-5"
       d="m 1391.2998,1800.8962 a 46.394329,46.394329 0 0 1 -26.6676,48.3008 46.394329,46.394329 0 0 1 -53.993,-11.3527 46.394329,46.394329 0 0 1 -4.9576,-54.9505"
       transform="rotate(143.71605,1382.697,864.08377)" /><path
       style="display:inline;fill:none;fill-opacity:1;stroke:#ffffff;stroke-width:1.83274;stroke-linecap:round;stroke-linejoin:miter;stroke-dasharray:none;stroke-opacity:1;paint-order:markers stroke fill"
       id="path12-2-9-8-1-3-2-9-2-0-3"
       d="m 1387.3732,1801.7028 a 42.453865,42.453865 0 0 1 -23.0579,43.4872 42.453865,42.453865 0 0 1 -48.6432,-7.5251 42.453865,42.453865 0 0 1 -8.8396,-48.4217"
       transform="rotate(143.71605,1382.697,864.08377)" /><path
       style="display:inline;fill:none;fill-opacity:1;stroke:#ffffff;stroke-width:1.83274;stroke-linecap:round;stroke-linejoin:miter;stroke-dasharray:none;stroke-opacity:1;paint-order:markers stroke fill"
       id="path13-8-2-2-1-3-7-8-0-7-4"
       d="m 1383.3843,1802.7247 a 38.501514,38.501514 0 0 1 -20.0699,38.5519 38.501514,38.501514 0 0 1 -43.2068,-4.7147 38.501514,38.501514 0 0 1 -11.2831,-41.9731"
       transform="rotate(143.71605,1382.697,864.08377)" /><path
       style="display:inline;fill:none;fill-opacity:1;stroke:#ffffff;stroke-width:1.83274;stroke-linecap:round;stroke-linejoin:miter;stroke-dasharray:none;stroke-opacity:1;paint-order:markers stroke fill"
       id="path14-2-9-5-5-4-9-6-0-3-3"
       d="m 1379.4866,1803.3192 a 34.689011,34.689011 0 0 1 -17.1583,34.1592 34.689011,34.689011 0 0 1 -38.1535,-2.3604 34.689011,34.689011 0 0 1 -12.817,-36.0137"
       transform="rotate(143.71605,1382.697,864.08377)" /><path
       style="display:inline;fill:none;fill-opacity:1;stroke:#ffffff;stroke-width:1.83274;stroke-linecap:round;stroke-linejoin:miter;stroke-dasharray:none;stroke-opacity:1;paint-order:markers stroke fill"
       id="path15-8-3-2-2-1-5-5-1-4-2"
       d="m -1387.6772,-1791.5169 a 54.26408,54.26408 0 0 1 -32.4931,60.9999 54.26408,54.26408 0 0 1 -66.0394,-20.386 54.26408,54.26408 0 0 1 7.5451,-68.7013 54.26408,54.26408 0 0 1 68.8898,-5.5674"
       transform="rotate(-35.874012,2650.9707,-4276.0148)" /><path
       style="display:inline;fill:none;fill-opacity:1;stroke:#ffffff;stroke-width:1.83274;stroke-linecap:round;stroke-linejoin:miter;stroke-dasharray:none;stroke-opacity:1;paint-order:markers stroke fill"
       id="path16-9-4-0-7-1-4-0-4-9-1"
       d="m -1411.6815,-1786.2845 a 30.528954,30.528954 0 0 1 -23.1775,35.8696 30.528954,30.528954 0 0 1 -36.3612,-22.3984 30.528954,30.528954 0 0 1 21.6089,-36.8359 30.528954,30.528954 0 0 1 37.2934,20.8095"
       transform="rotate(-35.874012,2650.9707,-4276.0148)" /><path
       style="display:inline;fill:none;fill-opacity:1;stroke:#ffffff;stroke-width:1.83274;stroke-linecap:round;stroke-linejoin:miter;stroke-dasharray:none;stroke-opacity:1;paint-order:markers stroke fill"
       id="path17-0-4-3-6-3-3-2-60-6-1"
       d="m -1391.6547,-1790.6543 a 50.333683,50.333683 0 0 1 -30.2922,56.6443 50.333683,50.333683 0 0 1 -61.2837,-19.2487 50.333683,50.333683 0 0 1 7.5358,-63.792 50.333683,50.333683 0 0 1 64.082,-4.4391"
       transform="rotate(-35.874012,2650.9707,-4276.0148)" /><path
       style="display:inline;fill:none;fill-opacity:1;stroke:#ffffff;stroke-width:1.83274;stroke-linecap:round;stroke-linejoin:miter;stroke-dasharray:none;stroke-opacity:1;paint-order:markers stroke fill"
       id="path18-7-0-7-1-8-1-8-7-5-3"
       d="m -1395.7333,-1789.9262 a 46.394329,46.394329 0 0 1 -28.1895,52.3196 46.394329,46.394329 0 0 1 -56.5305,-18.3383 46.394329,46.394329 0 0 1 7.8911,-58.9043 46.394329,46.394329 0 0 1 59.3639,-2.8126"
       transform="rotate(-35.874012,2650.9707,-4276.0148)" /><path
       style="display:inline;fill:none;fill-opacity:1;stroke:#ffffff;stroke-width:1.83274;stroke-linecap:round;stroke-linejoin:miter;stroke-dasharray:none;stroke-opacity:1;paint-order:markers stroke fill"
       id="path19-8-5-2-4-7-2-6-17-1-2"
       d="m -1399.6228,-1788.9153 a 42.453865,42.453865 0 0 1 -26.0995,47.9965 42.453865,42.453865 0 0 1 -51.7694,-17.4579 42.453865,42.453865 0 0 1 8.2964,-54.0003 42.453865,42.453865 0 0 1 54.6225,-1.1123"
       transform="rotate(-35.874012,2650.9707,-4276.0148)" /><path
       style="display:inline;fill:none;fill-opacity:1;stroke:#ffffff;stroke-width:1.83274;stroke-linecap:round;stroke-linejoin:miter;stroke-dasharray:none;stroke-opacity:1;paint-order:markers stroke fill"
       id="path20-1-9-9-2-4-3-0-7-0-5"
       d="m -1403.6195,-1788.0432 a 38.501514,38.501514 0 0 1 -24.1329,43.7064 38.501514,38.501514 0 0 1 -46.9915,-16.8655 38.501514,38.501514 0 0 1 9.1676,-49.0775 38.501514,38.501514 0 0 1 49.9112,1.2359"
       transform="rotate(-35.874012,2650.9707,-4276.0148)" /><path
       style="display:inline;fill:none;fill-opacity:1;stroke:#ffffff;stroke-width:1.83274;stroke-linecap:round;stroke-linejoin:miter;stroke-dasharray:none;stroke-opacity:1;paint-order:markers stroke fill"
       id="path21-5-6-7-3-2-3-2-7-9-3"
       d="m -1407.4978,-1787.3156 a 34.689011,34.689011 0 0 1 -22.255,39.6888 34.689011,34.689011 0 0 1 -42.4084,-16.493 34.689011,34.689011 0 0 1 10.4077,-44.2964 34.689011,34.689011 0 0 1 45.3158,4.1183"
       transform="rotate(-35.874012,2650.9707,-4276.0148)" /><path
       style="display:inline;fill:none;fill-opacity:1;stroke:#ffffff;stroke-width:1.83274;stroke-linecap:round;stroke-linejoin:round;stroke-dasharray:none;stroke-opacity:1"
       d="m -2145.1085,-614.89209 0.014,41.156 11.3258,-11.2166 11.3305,11.372 0.023,-41.3166 v 0"
       id="path22-8-3-5-2-7-4-4-7-9-5"
       transform="translate(3008.6348,742.35392)" /></g></svg>
